<?xml version="1.0" standalone="no"?>
<!DOCTYPE svg PUBLIC "-//W3C//DTD SVG 20010904//EN"
 "http://www.w3.org/TR/2001/REC-SVG-20010904/DTD/svg10.dtd">
<svg version="1.0" xmlns="http://www.w3.org/2000/svg"
 width="192.000000pt" height="192.000000pt" viewBox="0 0 192.000000 192.000000"
 preserveAspectRatio="xMidYMid meet">
<metadata>
Created by potrace 1.14, written by Peter Selinger 2001-2017
</metadata>
<g transform="translate(0.000000,192.000000) scale(0.100000,-0.100000)"
fill="#000000" stroke="none">
<path d="M2 1224 l3 -696 78 -32 c90 -38 100 -46 95 -77 -2 -18 -25 -36 -90
-74 l-88 -50 0 -147 0 -148 960 0 960 0 0 960 0 960 -960 0 -960 0 2 -696z
m1486 204 c8 -8 12 -50 12 -125 l0 -112 95 -66 c94 -66 110 -87 87 -121 -4 -6
-54 -27 -112 -46 l-105 -35 -30 -100 c-50 -168 -66 -172 -166 -38 l-71 96
-109 -7 c-165 -10 -177 14 -76 152 34 48 61 92 59 98 -2 6 -19 53 -38 105 -19
52 -32 103 -28 113 9 31 46 30 146 -1 52 -17 99 -31 104 -31 6 0 48 29 94 65
84 64 115 76 138 53z"/>
<path d="M1370 1303 c-100 -81 -86 -78 -190 -44 -79 25 -91 27 -87 13 3 -9 17
-51 32 -94 l28 -76 -50 -69 c-27 -37 -53 -74 -57 -82 -7 -11 8 -12 85 -7 52 4
99 3 104 -1 6 -4 33 -38 60 -75 27 -38 52 -68 55 -68 4 0 18 39 31 88 l25 87
75 27 c41 14 83 29 94 32 16 4 4 16 -60 61 l-80 55 -5 98 -5 99 -55 -44z"/>
<path d="M0 415 c0 -19 3 -35 6 -35 4 0 22 10 41 21 l35 22 -32 13 c-46 20
-50 18 -50 -21z"/>
</g>
</svg>
